<?xml version="1.0" standalone="no"?>
<!DOCTYPE svg PUBLIC "-//W3C//DTD SVG 20010904//EN"
 "http://www.w3.org/TR/2001/REC-SVG-20010904/DTD/svg10.dtd">
<svg version="1.0" xmlns="http://www.w3.org/2000/svg"
 width="158.000000pt" height="158.000000pt" viewBox="0 0 158.000000 158.000000"
 preserveAspectRatio="xMidYMid meet">
<metadata>
Created by potrace 1.11, written by Peter Selinger 2001-2013
</metadata>
<g transform="translate(0.000000,158.000000) scale(0.100000,-0.100000)"
fill="#000000" stroke="none">
<path d="M665 1527 c-44 -4 -111 -17 -149 -29 -77 -24 -176 -74 -176 -89 0 -5
-6 -9 -12 -9 -20 -1 -75 -55 -129 -126 -95 -125 -137 -259 -143 -457 -4 -96 7
-217 27 -302 10 -39 49 -131 79 -184 76 -132 254 -261 398 -288 8 -1 36 -6 62
-11 26 -5 98 -8 160 -6 62 1 185 5 273 7 88 2 169 7 180 10 11 2 40 11 65 18
25 7 50 13 56 15 15 3 111 50 159 79 l40 23 0 101 c0 56 -1 101 -3 101 -1 0
-33 -23 -70 -52 -37 -28 -92 -62 -122 -76 -30 -14 -57 -28 -60 -31 -3 -3 -20
-6 -39 -6 l-34 0 2 74 2 74 -23 -17 c-114 -83 -218 -135 -270 -136 -15 0 -52
11 -82 24 -30 13 -58 21 -62 18 -4 -4 -4 -1 0 6 4 6 4 12 -1 12 -4 0 -22 13
-39 30 -18 16 -35 27 -38 24 -3 -2 -4 -1 -1 2 2 4 -8 23 -23 43 -45 58 -58 83
-77 148 -10 34 -21 60 -24 58 -3 -1 -7 13 -7 33 -1 21 -4 91 -7 157 -5 110 7
227 28 290 14 40 38 91 56 116 10 14 15 30 11 34 -4 5 -2 6 3 3 6 -4 21 9 35
28 14 18 30 34 37 34 7 0 16 6 20 13 4 8 34 26 66 42 73 35 120 31 225 -20 42
-21 79 -41 82 -44 3 -4 24 -21 48 -40 l42 -33 0 84 c0 47 3 87 6 91 8 8 151
-54 203 -89 24 -16 51 -33 60 -39 9 -5 19 -14 22 -18 3 -4 4 27 3 70 -1 43 -3
90 -3 104 -1 29 -49 60 -153 99 -117 44 -155 47 -463 42 -38 -1 -90 -1 -115 1
-25 1 -81 -1 -125 -6z m-137 -222 c-23 -28 -33 -41 -45 -60 -62 -98 -97 -203
-109 -330 -4 -33 -8 -62 -10 -64 -2 -2 1 -10 7 -17 7 -8 7 -14 -1 -19 -5 -3
-10 -11 -10 -16 0 -6 5 -7 12 -3 7 5 8 3 3 -6 -10 -15 -7 -142 3 -150 4 -3 8
-21 9 -40 2 -47 44 -181 55 -174 4 3 6 -1 3 -8 -6 -16 60 -131 98 -170 34 -33
30 -34 -26 -8 -99 47 -182 153 -224 288 -23 75 -26 106 -27 222 -1 138 6 235
18 247 3 3 6 13 6 20 0 28 69 162 101 199 40 43 118 103 137 104 10 0 10 -3 0
-15z"/>
</g>
</svg>
